G04 #@! TF.GenerationSoftware,KiCad,Pcbnew,(2017-01-24 revision 0b6147e)-makepkg*
G04 #@! TF.CreationDate,2017-05-22T07:18:10-07:00*
G04 #@! TF.ProjectId,SolderSniffer9000,536F6C646572536E6966666572393030,rev?*
G04 #@! TF.FileFunction,Copper,L1,Top,Signal*
G04 #@! TF.FilePolarity,Positive*
%FSLAX46Y46*%
G04 Gerber Fmt 4.6, Leading zero omitted, Abs format (unit mm)*
G04 Created by KiCad (PCBNEW (2017-01-24 revision 0b6147e)-makepkg) date 05/22/17 07:18:10*
%MOMM*%
%LPD*%
G01*
G04 APERTURE LIST*
%ADD10C,0.100000*%
%ADD11C,3.000000*%
%ADD12R,1.250000X1.000000*%
%ADD13R,1.600000X1.000000*%
%ADD14R,1.000000X1.250000*%
%ADD15R,3.600000X1.500000*%
%ADD16R,1.198880X1.198880*%
%ADD17C,2.000000*%
%ADD18R,0.700000X1.300000*%
%ADD19C,1.400000*%
%ADD20R,1.100000X0.600000*%
%ADD21R,1.400000X0.600000*%
%ADD22R,1.348740X0.398780*%
%ADD23R,1.899920X1.899920*%
%ADD24C,1.650000*%
%ADD25C,1.250000*%
%ADD26R,1.998980X2.301240*%
%ADD27C,0.800000*%
%ADD28C,0.381000*%
%ADD29C,0.508000*%
%ADD30C,0.762000*%
G04 APERTURE END LIST*
D10*
D11*
X156100000Y-110100000D03*
X151020000Y-110100000D03*
X153560000Y-117720000D03*
X156100000Y-62100000D03*
X151020000Y-62100000D03*
X153560000Y-54480000D03*
D12*
X156718000Y-101838000D03*
X156718000Y-99838000D03*
D13*
X149098000Y-102338000D03*
X149098000Y-99338000D03*
D12*
X160274000Y-78724000D03*
X160274000Y-76724000D03*
D14*
X157800000Y-81600000D03*
X155800000Y-81600000D03*
D12*
X149600000Y-76700000D03*
X149600000Y-78700000D03*
X152500000Y-78700000D03*
X152500000Y-76700000D03*
D15*
X160224000Y-70840000D03*
X160224000Y-73890000D03*
D16*
X157259020Y-91186000D03*
X155160980Y-91186000D03*
X149850980Y-91200000D03*
X151949020Y-91200000D03*
D17*
X156950000Y-46024000D03*
X160450000Y-46024000D03*
D18*
X157150000Y-94700000D03*
X155250000Y-94700000D03*
X151850000Y-94700000D03*
X149950000Y-94700000D03*
X153950000Y-105300000D03*
X155850000Y-105300000D03*
X160050000Y-81600000D03*
X161950000Y-81600000D03*
X147650000Y-81600000D03*
X149550000Y-81600000D03*
X153550000Y-81600000D03*
X151650000Y-81600000D03*
D17*
X152690000Y-45720000D03*
X144490000Y-45720000D03*
D19*
X148590000Y-45720000D03*
X150590000Y-45720000D03*
X146590000Y-45720000D03*
D20*
X151540000Y-101720000D03*
X151540000Y-100770000D03*
X151540000Y-99820000D03*
X154340000Y-99820000D03*
X154340000Y-101720000D03*
D21*
X155344000Y-78816000D03*
X155344000Y-77866000D03*
X155344000Y-76916000D03*
X157544000Y-78816000D03*
X157544000Y-76916000D03*
D22*
X160310000Y-100787940D03*
X160310000Y-100137700D03*
X160310000Y-99490000D03*
X160310000Y-98842300D03*
X160310000Y-98192060D03*
D23*
X162984620Y-100688880D03*
X162984620Y-98291120D03*
D24*
X162980000Y-102920000D03*
X162980000Y-96060000D03*
D25*
X160310000Y-96992060D03*
X160310000Y-101992060D03*
D26*
X151660860Y-72644000D03*
X155679140Y-72644000D03*
D27*
X152500000Y-77900000D03*
X153900000Y-77200000D03*
X160300000Y-79900000D03*
X156600000Y-77866000D03*
X155800000Y-83000000D03*
X153600000Y-83000000D03*
X149900000Y-92600000D03*
X149100000Y-98100000D03*
X148800000Y-100800000D03*
X161400000Y-97700000D03*
X156700000Y-98500000D03*
X155900000Y-103800000D03*
D28*
X152500000Y-78700000D02*
X152500000Y-77900000D01*
D29*
X155344000Y-77866000D02*
X154566000Y-77866000D01*
X154566000Y-77866000D02*
X153900000Y-77200000D01*
X160274000Y-78724000D02*
X160274000Y-79874000D01*
X160274000Y-79874000D02*
X160300000Y-79900000D01*
X158666000Y-77866000D02*
X156600000Y-77866000D01*
X155344000Y-77866000D02*
X156600000Y-77866000D01*
X155800000Y-81600000D02*
X155800000Y-83000000D01*
X153550000Y-81600000D02*
X153550000Y-82950000D01*
X153550000Y-82950000D02*
X153600000Y-83000000D01*
X149850980Y-91200000D02*
X149850980Y-92550980D01*
X149850980Y-92550980D02*
X149900000Y-92600000D01*
X149098000Y-99338000D02*
X149098000Y-98102000D01*
X149098000Y-98102000D02*
X149100000Y-98100000D01*
X150000000Y-100770000D02*
X149670000Y-100770000D01*
X151540000Y-100770000D02*
X150000000Y-100770000D01*
X150000000Y-100770000D02*
X148830000Y-100770000D01*
X148830000Y-100770000D02*
X148800000Y-100800000D01*
D28*
X160310000Y-98192060D02*
X160907940Y-98192060D01*
X160907940Y-98192060D02*
X161400000Y-97700000D01*
D30*
X156718000Y-99838000D02*
X156718000Y-98518000D01*
X156718000Y-98518000D02*
X156700000Y-98500000D01*
X155850000Y-105300000D02*
X155850000Y-103850000D01*
X155850000Y-103850000D02*
X155900000Y-103800000D01*
D29*
X149670000Y-100770000D02*
X149098000Y-100198000D01*
X149098000Y-100198000D02*
X149098000Y-99338000D01*
X155800000Y-81600000D02*
X153550000Y-81600000D01*
X154134000Y-77866000D02*
X153300000Y-78700000D01*
X153300000Y-78700000D02*
X152500000Y-78700000D01*
X155344000Y-77866000D02*
X154134000Y-77866000D01*
X159524000Y-78724000D02*
X158666000Y-77866000D01*
X160274000Y-78724000D02*
X159524000Y-78724000D01*
D30*
X160274000Y-78724000D02*
X160024000Y-78724000D01*
X151020000Y-110100000D02*
X151020000Y-115180000D01*
X151020000Y-115180000D02*
X153560000Y-117720000D01*
X145600000Y-50800000D02*
X148590000Y-47810000D01*
X148590000Y-47810000D02*
X148590000Y-45720000D01*
X145600000Y-99700000D02*
X145600000Y-50800000D01*
X148238000Y-102338000D02*
X145600000Y-99700000D01*
X149098000Y-102338000D02*
X148238000Y-102338000D01*
X151020000Y-110100000D02*
X156100000Y-110100000D01*
X149000000Y-108100000D02*
X149000000Y-102436000D01*
X149000000Y-102436000D02*
X149098000Y-102338000D01*
X151000000Y-110100000D02*
X149000000Y-108100000D01*
X151020000Y-110100000D02*
X151000000Y-110100000D01*
X151540000Y-101720000D02*
X149716000Y-101720000D01*
X149716000Y-101720000D02*
X149098000Y-102338000D01*
D28*
X158700000Y-92700000D02*
X158700000Y-100275880D01*
X158700000Y-100275880D02*
X159212060Y-100787940D01*
X157259020Y-91259020D02*
X158700000Y-92700000D01*
X157259020Y-91186000D02*
X157259020Y-91259020D01*
D30*
X156718000Y-101838000D02*
X154458000Y-101838000D01*
X154458000Y-101838000D02*
X154340000Y-101720000D01*
D28*
X159212060Y-100787940D02*
X158162000Y-101838000D01*
X158162000Y-101838000D02*
X156718000Y-101838000D01*
X160310000Y-100787940D02*
X159212060Y-100787940D01*
D30*
X157800000Y-81600000D02*
X157800000Y-79072000D01*
X157800000Y-79072000D02*
X157544000Y-78816000D01*
X160050000Y-81600000D02*
X157800000Y-81600000D01*
X147500000Y-64100000D02*
X147500000Y-55474000D01*
X147500000Y-55474000D02*
X156950000Y-46024000D01*
X151660860Y-68260860D02*
X147500000Y-64100000D01*
X151660860Y-72644000D02*
X151660860Y-68260860D01*
X150356000Y-72644000D02*
X149600000Y-73400000D01*
X149600000Y-73400000D02*
X149600000Y-76700000D01*
X151660860Y-72644000D02*
X150356000Y-72644000D01*
X148600000Y-76700000D02*
X147650000Y-77650000D01*
X147650000Y-77650000D02*
X147650000Y-81600000D01*
X149600000Y-76700000D02*
X148600000Y-76700000D01*
X152500000Y-76700000D02*
X149600000Y-76700000D01*
X152100000Y-80100000D02*
X151650000Y-80550000D01*
X151650000Y-80550000D02*
X151650000Y-81600000D01*
X154200000Y-80100000D02*
X152100000Y-80100000D01*
X155344000Y-78956000D02*
X154200000Y-80100000D01*
X155344000Y-78816000D02*
X155344000Y-78956000D01*
X149550000Y-81600000D02*
X149550000Y-78750000D01*
X149550000Y-78750000D02*
X149600000Y-78700000D01*
X151650000Y-81600000D02*
X149550000Y-81600000D01*
X155344000Y-76916000D02*
X155344000Y-72979140D01*
X155344000Y-72979140D02*
X155679140Y-72644000D01*
X156560000Y-70840000D02*
X155679140Y-71720860D01*
X155679140Y-71720860D02*
X155679140Y-72644000D01*
X160224000Y-70840000D02*
X156560000Y-70840000D01*
X155250000Y-93350000D02*
X155160980Y-93260980D01*
X155160980Y-93260980D02*
X155160980Y-91186000D01*
X155250000Y-94700000D02*
X155250000Y-93350000D01*
X151850000Y-94700000D02*
X151850000Y-91299020D01*
X151850000Y-91299020D02*
X151949020Y-91200000D01*
X156300000Y-97000000D02*
X157150000Y-96150000D01*
X157150000Y-96150000D02*
X157150000Y-94700000D01*
X152900000Y-97000000D02*
X156300000Y-97000000D01*
X151540000Y-98360000D02*
X152900000Y-97000000D01*
X151540000Y-98440000D02*
X151540000Y-98360000D01*
X151540000Y-98440000D02*
X149950000Y-96850000D01*
X149950000Y-96850000D02*
X149950000Y-94700000D01*
X151540000Y-99820000D02*
X151540000Y-98440000D01*
D28*
X153000000Y-100600000D02*
X153000000Y-104350000D01*
X153000000Y-104350000D02*
X153950000Y-105300000D01*
X153780000Y-99820000D02*
X153000000Y-100600000D01*
X154340000Y-99820000D02*
X153780000Y-99820000D01*
D30*
X151400000Y-43300000D02*
X150590000Y-44110000D01*
X150590000Y-44110000D02*
X150590000Y-45720000D01*
X161400000Y-43300000D02*
X151400000Y-43300000D01*
X163000000Y-44900000D02*
X161400000Y-43300000D01*
X163000000Y-73400000D02*
X163000000Y-44900000D01*
X162510000Y-73890000D02*
X163000000Y-73400000D01*
X160224000Y-73890000D02*
X162510000Y-73890000D01*
X160274000Y-76724000D02*
X157736000Y-76724000D01*
X157736000Y-76724000D02*
X157544000Y-76916000D01*
X160274000Y-76724000D02*
X160274000Y-73940000D01*
X160274000Y-73940000D02*
X160224000Y-73890000D01*
X161950000Y-77250000D02*
X161424000Y-76724000D01*
X161424000Y-76724000D02*
X160274000Y-76724000D01*
X161950000Y-81600000D02*
X161950000Y-77250000D01*
M02*
