M48
INCH,TZ
T1C0.016
T2C0.031
T3C0.033
T4C0.045
T5C0.047
T6C0.049
T7C0.072
%
G90
G05
T1
X58583Y-39685
X58701Y-38622
X59016Y-36457
X60039Y-30669
X60472Y-32677
X60591Y-30394
X61339Y-32677
X61378Y-40866
X61654Y-30656
X61693Y-38780
X63110Y-31457
X63543Y-38465
T2
X57713Y-18000
X58500Y-18000
X59287Y-18000
T3
X63114Y-38186
X63114Y-40154
T4
X64165Y-37819
X64165Y-40520
T5
X61791Y-18120
X63169Y-18120
T6
X56886Y-18000
X60114Y-18000
T7
X59457Y-24449
X59457Y-43346
X60457Y-21449
X60457Y-46346
X61457Y-24449
X61457Y-43346
T0
M30
